<?xml version="1.0" encoding="UTF-8" ?>
<!DOCTYPE svg PUBLIC "-//W3C//DTD SVG 1.1//EN" "http://www.w3.org/Graphics/SVG/1.1/DTD/svg11.dtd">
<svg width="500pt" height="500pt" viewBox="0 0 500 500" version="1.1" xmlns="http://www.w3.org/2000/svg">
<g id="#ff1616ff">
</g>
<g id="#fff6edff">
<path fill="#fff6ed" opacity="1.00" d=" M 208.44 108.87 C 205.72 102.39 210.76 93.93 217.94 93.92 C 236.61 93.81 255.30 93.90 273.98 93.88 C 278.67 93.53 282.92 97.04 284.44 101.33 C 319.86 196.33 355.35 291.31 390.78 386.31 C 392.25 390.00 392.27 394.50 389.78 397.77 C 387.50 401.33 383.16 402.79 379.11 402.73 C 359.05 402.76 338.99 402.77 318.93 402.72 C 313.82 402.94 308.65 399.96 307.06 394.95 C 302.17 381.53 297.37 368.08 292.53 354.63 C 289.25 353.48 286.04 350.82 286.21 347.02 C 285.69 341.43 292.40 337.05 297.32 339.78 C 301.82 341.83 302.77 347.82 300.15 351.74 C 304.91 365.30 309.80 378.83 314.75 392.32 C 315.14 394.25 317.29 394.61 318.96 394.52 C 339.33 394.46 359.70 394.55 380.07 394.48 C 382.86 395.00 384.71 391.85 383.35 389.51 C 347.92 294.63 312.51 199.73 277.10 104.84 C 276.53 103.55 275.85 101.62 274.09 101.81 C 256.04 101.65 237.98 101.81 219.93 101.73 C 217.97 101.42 215.62 102.71 215.79 104.93 C 216.17 106.82 216.86 108.61 217.50 110.42 C 226.74 136.82 235.76 163.30 245.07 189.68 C 249.33 190.81 252.48 195.59 250.84 199.91 C 249.28 205.13 241.80 206.98 238.05 202.97 C 235.05 200.19 235.22 195.61 237.36 192.38 C 227.77 164.52 218.02 136.72 208.44 108.87 Z" />
<path fill="#fff6ed" opacity="1.00" d=" M 255.21 151.08 C 255.04 145.55 261.84 141.46 266.60 144.43 C 270.91 146.61 271.56 152.45 268.99 156.22 C 292.07 222.53 315.13 288.85 338.38 355.10 C 342.05 356.35 345.10 359.96 344.26 364.03 C 343.64 369.26 337.02 372.33 332.65 369.32 C 328.64 366.96 328.06 361.42 330.60 357.77 C 307.60 291.45 284.42 225.20 261.30 158.92 C 258.03 157.67 254.97 154.86 255.21 151.08 Z" />
<path fill="#fff6ed" opacity="1.00" d=" M 168.06 193.96 C 170.29 187.54 178.81 184.93 184.42 188.57 C 188.29 190.71 189.52 195.22 190.72 199.14 C 210.58 259.93 230.50 320.69 250.36 381.48 C 251.37 384.56 252.64 387.60 252.98 390.85 C 253.36 396.76 248.33 402.35 242.40 402.59 C 235.86 402.96 229.29 402.65 222.74 402.74 C 219.99 406.39 214.18 407.52 210.67 404.34 C 206.85 401.12 207.50 394.26 211.95 391.90 C 215.58 389.62 220.21 391.30 222.68 394.49 C 229.12 394.45 235.56 394.61 242.01 394.44 C 243.57 394.60 244.54 393.13 244.97 391.85 C 244.15 387.69 242.54 383.75 241.28 379.72 C 221.57 319.47 201.85 259.23 182.14 198.99 C 181.56 197.40 181.02 195.08 178.93 195.00 C 176.90 194.56 175.60 196.42 175.09 198.10 C 157.26 246.01 139.25 293.86 121.49 341.80 C 123.98 345.46 123.33 350.95 119.38 353.30 C 114.81 356.61 107.14 352.80 107.83 346.95 C 107.20 343.01 110.39 340.03 113.84 338.94 C 131.96 290.63 149.88 242.24 168.06 193.96 Z" />
<path fill="#fff6ed" opacity="1.00" d=" M 163.67 292.81 C 168.47 290.50 174.71 294.60 174.37 299.95 C 174.57 303.69 171.52 306.37 168.32 307.61 C 159.75 331.04 151.39 354.55 142.89 378.00 C 155.91 377.97 168.93 378.06 181.94 377.95 C 183.75 375.97 186.14 374.20 188.98 374.46 C 193.67 374.50 197.36 379.57 196.02 384.05 C 195.09 388.15 190.39 390.83 186.40 389.44 C 183.93 388.99 182.72 385.82 180.02 386.23 C 165.98 386.25 151.94 386.30 137.90 386.22 C 134.87 386.64 131.97 383.45 133.40 380.54 C 142.41 355.26 151.67 330.08 160.61 304.78 C 157.80 300.84 159.01 294.68 163.67 292.81 Z" />
</g>
</svg>
