<svg width="961" height="810" viewBox="0 0 961 810" fill="none" xmlns="http://www.w3.org/2000/svg">
<path opacity="0.010101" d="M652.171 407.595C657.738 401.83 658.96 393.135 655.198 386.059L498.359 91.0889C494.597 84.0124 486.705 80.1635 478.812 81.5552L149.814 139.567C141.921 140.958 135.822 147.274 134.706 155.211L88.2121 486.034C87.0967 493.97 91.2186 501.723 98.4221 505.236L398.686 651.684C405.889 655.198 414.536 653.673 420.104 647.908L652.171 407.595Z" stroke="url(#paint0_linear_32_81)" stroke-width="3"/>
<path opacity="0.020202" d="M655.863 403.502C661.329 397.64 662.399 388.926 658.514 381.916L496.873 90.3076C492.987 83.2979 485.03 79.5872 477.162 81.1165L149.876 144.734C142.009 146.264 136.021 152.685 135.044 160.64L94.4118 491.566C93.435 499.521 97.6917 507.2 104.955 510.587L407.129 651.493C414.392 654.88 423.011 653.205 428.477 647.343L655.863 403.502Z" stroke="url(#paint1_linear_32_81)" stroke-width="3"/>
<path opacity="0.030303" d="M659.463 399.414C664.826 393.458 665.744 384.726 661.736 377.785L495.362 89.6161C491.355 82.6752 483.334 79.1041 475.494 80.7704L150.017 149.953C142.177 151.619 136.303 158.144 135.465 166.115L100.683 497.041C99.8453 505.011 104.235 512.615 111.557 515.875L415.538 651.216C422.86 654.476 431.448 652.65 436.811 646.694L659.463 399.414Z" stroke="url(#paint2_linear_32_81)" stroke-width="3"/>
<path opacity="0.040404" d="M662.971 395.334C668.229 389.285 668.994 380.538 664.867 373.668L493.83 89.015C489.702 82.1451 481.62 78.7145 473.81 80.5174L150.236 155.22C142.427 157.023 136.666 163.65 135.968 171.634L107.025 502.456C106.326 510.44 110.848 517.966 118.226 521.098L423.912 650.854C431.29 653.986 439.845 652.011 445.103 645.962L662.971 395.334Z" stroke="url(#paint3_linear_32_81)" stroke-width="3"/>
<path opacity="0.050505" d="M666.387 391.262C671.539 385.122 672.152 376.363 667.905 369.566L492.277 88.5035C488.03 81.7067 479.889 78.4177 472.113 80.3566L150.534 160.535C142.757 162.474 137.114 169.2 136.554 177.195L113.436 507.811C112.876 515.806 117.529 523.252 124.96 526.255L432.251 650.408C439.682 653.41 448.201 651.286 453.353 645.147L666.387 391.262Z" stroke="url(#paint4_linear_32_81)" stroke-width="3"/>
<path opacity="0.0606061" d="M669.713 387.198C674.756 380.97 675.216 372.202 670.851 365.48L490.706 88.0808C486.34 81.3592 478.144 78.2127 470.402 80.287L150.912 165.894C143.17 167.969 137.645 174.792 137.225 182.796L119.915 513.103C119.495 521.107 124.277 528.47 131.759 531.342L440.551 649.876C448.033 652.749 456.514 650.476 461.558 644.248L669.713 387.198Z" stroke="url(#paint5_linear_32_81)" stroke-width="3"/>
<path opacity="0.0707071" d="M672.946 383.147C677.881 376.831 678.187 368.057 673.705 361.412L489.117 87.7483C484.635 81.1038 476.385 78.1009 468.68 80.3101L151.37 171.297C143.666 173.507 138.26 180.425 137.98 188.435L126.46 518.332C126.18 526.342 131.09 533.621 138.621 536.362L448.812 649.262C456.344 652.003 464.783 649.583 469.718 643.268L672.946 383.147Z" stroke="url(#paint6_linear_32_81)" stroke-width="3"/>
<path opacity="0.0808081" d="M676.09 379.11C680.913 372.709 681.066 363.93 676.469 357.365L487.513 87.5075C482.916 80.9423 474.614 78.0838 466.95 80.427L151.909 176.745C144.245 179.088 138.961 186.1 138.821 194.113L133.072 523.499C132.932 531.512 137.968 538.704 145.546 541.314L457.033 648.567C464.611 651.177 473.007 648.609 477.831 642.209L676.09 379.11Z" stroke="url(#paint7_linear_32_81)" stroke-width="3"/>
<path opacity="0.0909091" d="M679.143 375.087C683.854 368.603 683.854 359.823 679.143 353.339L485.895 87.3562C481.184 80.8722 472.834 78.159 465.212 80.6357L152.53 182.232C144.908 184.709 139.747 191.812 139.747 199.827V528.599C139.747 536.614 144.908 543.717 152.53 546.194L465.212 647.79C472.834 650.267 481.184 647.554 485.895 641.07L679.143 375.087Z" stroke="url(#paint8_linear_32_81)" stroke-width="3"/>
<path opacity="0.10101" d="M682.106 371.08C686.704 364.514 686.55 355.736 681.727 349.335L484.265 87.2945C479.442 80.8938 471.046 78.3267 463.468 80.9361L153.233 187.758C145.655 190.368 140.619 197.56 140.759 205.573L146.486 533.633C146.625 541.647 151.909 548.659 159.574 551.002L473.347 646.932C481.012 649.275 489.313 646.417 493.91 639.852L682.106 371.08Z" stroke="url(#paint9_linear_32_81)" stroke-width="3"/>
<path opacity="0.111111" d="M684.981 367.092C689.462 360.447 689.156 351.673 684.222 345.357L482.625 87.3249C477.691 81.0092 469.251 78.5891 461.719 81.3303L154.019 193.324C146.488 196.065 141.578 203.344 141.858 211.354L153.286 538.602C153.566 546.612 158.971 553.53 166.675 555.74L481.438 645.996C489.142 648.205 497.393 645.202 501.874 638.558L684.981 367.092Z" stroke="url(#paint10_linear_32_81)" stroke-width="3"/>
<path opacity="0.121212" d="M687.766 363.122C692.131 356.4 691.672 347.632 686.628 341.404L480.975 87.444C475.932 81.2155 467.451 78.9431 459.968 81.8153L154.889 198.924C147.406 201.797 142.624 209.16 143.044 217.164L160.146 543.501C160.566 551.504 166.091 558.328 173.833 560.402L489.483 644.98C497.224 647.055 505.421 643.908 509.786 637.186L687.766 363.122Z" stroke="url(#paint11_linear_32_81)" stroke-width="3"/>
<path opacity="0.131313" d="M690.463 359.174C694.71 352.377 694.098 343.619 688.946 337.479L479.319 87.6552C474.167 81.5156 465.648 79.3915 458.217 82.3939L155.842 204.561C148.41 207.564 143.758 215.01 144.317 223.005L167.066 548.332C167.625 556.328 173.269 563.053 181.045 564.992L497.48 643.888C505.257 645.827 513.398 642.538 517.645 635.741L690.463 359.174Z" stroke="url(#paint12_linear_32_81)" stroke-width="3"/>
<path opacity="0.141414" d="M693.073 355.249C697.2 348.379 696.435 339.632 691.177 333.583L477.656 87.9561C472.398 81.9074 463.843 79.9323 456.466 83.0639L156.879 210.231C149.501 213.363 144.979 220.889 145.678 228.873L174.043 553.094C174.742 561.078 180.502 567.704 188.311 569.507L505.429 642.72C513.239 644.523 521.321 641.092 525.449 634.222L693.073 355.249Z" stroke="url(#paint13_linear_32_81)" stroke-width="3"/>
<path opacity="0.151515" d="M695.595 351.347C699.602 344.406 698.684 335.674 693.321 329.718L475.99 88.3469C470.627 82.3908 462.039 80.5653 454.717 83.8252L158 215.932C150.679 219.192 146.289 226.796 147.126 234.766L181.077 557.784C181.915 565.755 187.79 572.279 195.629 573.946L513.328 641.475C521.168 643.141 529.189 639.57 533.196 632.629L695.595 351.347Z" stroke="url(#paint14_linear_32_81)" stroke-width="3"/>
<path opacity="0.161616" d="M698.03 347.471C701.916 340.461 700.846 331.747 695.38 325.885L474.321 88.8284C468.855 82.9668 460.236 81.2915 452.973 84.6787L159.207 221.664C151.944 225.051 147.687 232.73 148.664 240.685L188.166 562.403C189.143 570.358 195.13 576.779 202.998 578.308L521.177 640.156C529.044 641.685 537.002 637.975 540.887 630.965L698.03 347.471Z" stroke="url(#paint15_linear_32_81)" stroke-width="3"/>
<path opacity="0.171717" d="M700.38 343.623C704.143 336.546 702.921 327.851 697.354 322.086L472.652 89.4002C467.084 83.635 458.437 82.1103 451.234 85.6237L160.5 227.424C153.296 230.938 149.174 238.69 150.29 246.627L195.308 566.95C196.424 574.887 202.523 581.203 210.416 582.594L528.973 638.765C536.866 640.156 544.757 636.307 548.52 629.231L700.38 343.623Z" stroke="url(#paint16_linear_32_81)" stroke-width="3"/>
<path opacity="0.181818" d="M702.645 339.802C706.284 332.661 704.91 323.989 699.243 318.322L470.983 90.0615C465.315 84.3942 456.643 83.0207 449.502 86.6593L161.877 233.211C154.736 236.85 150.75 244.673 152.004 252.589L202.502 571.424C203.756 579.34 209.965 585.548 217.881 586.802L536.715 637.3C544.631 638.554 552.454 634.568 556.093 627.427L702.645 339.802Z" stroke="url(#paint17_linear_32_81)" stroke-width="3"/>
<path opacity="0.191919" d="M704.825 336.012C708.339 328.808 706.814 320.162 701.049 314.594L469.316 90.8126C463.551 85.2452 454.856 84.0233 447.78 87.786L163.342 239.024C156.265 242.787 152.416 250.679 153.808 258.571L209.748 575.823C211.14 583.716 217.456 589.816 225.392 590.931L544.403 635.765C552.34 636.88 560.092 632.758 563.606 625.555L704.825 336.012Z" stroke="url(#paint18_linear_32_81)" stroke-width="3"/>
<path opacity="0.20202" d="M706.921 332.251C710.309 324.988 708.633 316.369 702.772 310.903L467.653 91.6517C461.792 86.1857 453.077 85.1157 446.068 89.0013L164.892 244.86C157.882 248.745 154.171 256.703 155.701 264.57L217.043 580.147C218.572 588.014 224.993 594.002 232.948 594.979L552.035 634.158C559.99 635.135 567.669 630.878 571.057 623.614L706.921 332.251Z" stroke="url(#paint19_linear_32_81)" stroke-width="3"/>
<path opacity="0.212121" d="M708.934 328.526C712.194 321.204 710.369 312.616 704.413 307.253L465.996 92.5824C460.04 87.2196 451.308 86.3018 444.368 90.3091L166.529 250.72C159.588 254.727 156.017 262.748 157.683 270.587L224.385 584.397C226.052 592.237 232.576 598.112 240.547 598.95L559.611 632.485C567.581 633.322 575.185 628.932 578.445 621.611L708.934 328.526Z" stroke="url(#paint20_linear_32_81)" stroke-width="3"/>
<path opacity="0.222222" d="M710.865 324.833C713.997 317.456 712.022 308.901 705.973 303.643L464.347 93.6C458.298 88.342 449.551 87.5767 442.681 91.7046L168.252 256.598C161.382 260.726 157.952 268.808 159.755 276.617L231.774 588.57C233.577 596.379 240.204 602.139 248.188 602.838L567.128 630.742C575.112 631.44 582.638 626.918 585.769 619.54L710.865 324.833Z" stroke="url(#paint21_linear_32_81)" stroke-width="3"/>
<path opacity="0.232323" d="M712.714 321.177C715.717 313.746 713.593 305.227 707.453 300.075L462.705 94.7075C456.566 89.5557 447.807 88.9433 441.01 93.1904L170.063 262.497C163.266 266.744 159.977 274.885 161.916 282.662L239.209 592.667C241.148 600.443 247.873 606.087 255.869 606.646L574.586 628.933C582.581 629.492 590.027 624.839 593.029 617.408L712.714 321.177Z" stroke="url(#paint22_linear_32_81)" stroke-width="3"/>
<path opacity="0.242424" d="M714.483 317.558C717.355 310.076 715.082 301.595 708.854 296.551L461.074 95.9034C454.846 90.8596 446.078 90.4001 439.356 94.7652L171.96 268.414C165.238 272.779 162.092 280.976 164.166 288.718L246.686 596.687C248.761 604.428 255.584 609.954 263.588 610.373L581.984 627.059C589.987 627.479 597.351 622.697 600.223 615.215L714.483 317.558Z" stroke="url(#paint23_linear_32_81)" stroke-width="3"/>
<path opacity="0.252525" d="M716.171 313.977C718.912 306.446 716.492 298.006 710.176 293.071L459.455 97.1862C453.139 92.2519 444.365 91.9454 437.72 96.4272L173.945 274.346C167.301 278.827 164.298 287.078 166.507 294.782L254.206 600.627C256.416 608.331 263.334 613.737 271.344 614.016L589.32 625.12C597.33 625.4 604.609 620.49 607.35 612.959L716.171 313.977Z" stroke="url(#paint24_linear_32_81)" stroke-width="3"/>
<path opacity="0.262626" d="M717.78 310.435C720.39 302.857 717.823 294.46 711.422 289.637L457.849 98.5562C451.448 93.7329 442.669 93.5796 436.104 98.1767L176.017 280.292C169.452 284.889 166.594 293.19 168.937 300.855L261.767 604.489C264.11 612.153 271.122 617.437 279.136 617.577L596.595 623.118C604.608 623.258 611.801 618.222 614.41 610.644L717.78 310.435Z" stroke="url(#paint25_linear_32_81)" stroke-width="3"/>
<path opacity="0.272727" d="M719.311 306.935C721.788 299.312 719.075 290.962 712.591 286.251L456.258 100.014C449.774 95.3036 440.994 95.3036 434.51 100.014L178.177 286.251C171.693 290.962 168.98 299.312 171.457 306.935L269.367 608.272C271.844 615.895 278.947 621.056 286.962 621.056L603.806 621.056C611.821 621.056 618.924 615.895 621.401 608.272L719.311 306.935Z" stroke="url(#paint26_linear_32_81)" stroke-width="3"/>
<path opacity="0.282828" d="M720.765 303.477C723.108 295.812 720.25 287.511 713.684 282.914L454.683 101.559C448.118 96.9621 439.339 97.1153 432.938 101.939L180.424 292.222C174.023 297.045 171.456 305.442 174.065 313.02L277.004 611.976C279.614 619.554 286.806 624.59 294.819 624.45L610.953 618.932C618.967 618.792 625.979 613.508 628.322 605.844L720.765 303.477Z" stroke="url(#paint27_linear_32_81)" stroke-width="3"/>
<path opacity="0.292929" d="M722.142 300.063C724.351 292.359 721.348 284.109 714.704 279.627L453.126 103.191C446.482 98.7088 437.707 99.0153 431.391 103.95L182.759 298.203C176.443 303.137 174.023 311.577 176.764 319.108L284.678 615.6C287.419 623.131 294.698 628.041 302.708 627.761L618.035 616.75C626.045 616.47 632.964 611.065 635.173 603.36L722.142 300.063Z" stroke="url(#paint28_linear_32_81)" stroke-width="3"/>
<path opacity="0.30303" d="M723.444 296.693C725.518 288.951 722.372 280.755 715.65 276.39L451.589 104.906C444.867 100.541 436.099 101.001 429.871 106.044L185.181 304.19C178.952 309.234 176.68 317.715 179.552 325.197L292.387 619.142C295.259 626.624 302.622 631.406 310.626 630.986L625.052 614.508C633.055 614.089 639.879 608.563 641.953 600.822L723.444 296.693Z" stroke="url(#paint29_linear_32_81)" stroke-width="3"/>
<path opacity="0.313131" d="M724.671 293.371C726.61 285.594 723.321 277.453 716.524 273.206L450.072 106.709C443.275 102.461 434.517 103.074 428.377 108.226L187.69 310.186C181.551 315.338 179.427 323.857 182.429 331.288L300.128 622.604C303.131 630.035 310.576 634.688 318.572 634.128L632 612.211C639.996 611.652 646.722 606.009 648.66 598.232L724.671 293.371Z" stroke="url(#paint30_linear_32_81)" stroke-width="3"/>
<path opacity="0.323232" d="M725.824 290.094C727.627 282.284 724.197 274.202 717.327 270.075L448.578 108.594C441.708 104.466 432.961 105.231 426.912 110.489L190.287 316.185C184.238 321.443 182.263 329.998 185.395 337.375L307.901 625.983C311.033 633.36 318.559 637.882 326.543 637.184L638.882 609.858C646.866 609.159 653.492 603.399 655.295 595.59L725.824 290.094Z" stroke="url(#paint31_linear_32_81)" stroke-width="3"/>
<path opacity="0.333333" d="M726.905 286.867C728.572 279.027 725.001 271.006 718.06 266.999L447.107 110.565C440.166 106.557 431.434 107.475 425.478 112.838L192.971 322.188C187.015 327.551 185.19 336.139 188.45 343.461L315.705 629.281C318.965 636.603 326.569 640.993 334.539 640.155L645.694 607.451C653.665 606.613 660.19 600.738 661.856 592.899L726.905 286.867Z" stroke="url(#paint32_linear_32_81)" stroke-width="3"/>
<path opacity="0.343434" d="M727.915 283.689C729.444 275.821 725.734 267.864 718.724 263.978L445.662 112.618C438.652 108.732 429.938 109.802 424.076 115.268L195.743 328.192C189.881 333.658 188.206 342.277 191.593 349.541L323.537 632.496C326.924 639.76 334.603 644.016 342.558 643.039L652.438 604.991C660.392 604.014 666.814 598.026 668.343 590.159L727.915 283.689Z" stroke="url(#paint33_linear_32_81)" stroke-width="3"/>
<path opacity="0.353535" d="M728.854 280.563C730.245 272.67 726.397 264.779 719.32 261.016L444.243 114.755C437.167 110.992 428.472 112.214 422.707 117.782L198.601 334.198C192.836 339.766 191.311 348.412 194.825 355.616L331.396 635.629C334.91 642.833 342.662 646.955 350.599 645.839L659.111 602.481C667.047 601.366 673.363 595.266 674.755 587.373L728.854 280.563Z" stroke="url(#paint34_linear_32_81)" stroke-width="3"/>
<path opacity="0.363636" d="M729.723 277.488C730.977 269.572 726.991 261.749 719.85 258.11L442.853 116.973C435.712 113.335 427.04 114.708 421.373 120.376L201.546 340.202C195.879 345.869 194.506 354.541 198.144 361.682L339.281 638.679C342.92 645.82 350.743 649.806 358.659 648.552L665.712 599.92C673.628 598.666 679.837 592.458 681.091 584.542L729.723 277.488Z" stroke="url(#paint35_linear_32_81)" stroke-width="3"/>
<path opacity="0.373737" d="M730.524 274.467C731.639 266.531 727.517 258.778 720.314 255.265L441.491 119.274C434.288 115.761 425.641 117.285 420.074 123.051L204.578 346.203C199.011 351.968 197.789 360.663 201.551 367.74L347.19 641.646C350.953 648.723 358.844 652.572 366.737 651.18L672.243 597.311C680.135 595.919 686.235 589.603 687.35 581.667L730.524 274.467Z" stroke="url(#paint36_linear_32_81)" stroke-width="3"/>
<path opacity="0.383838" d="M731.258 271.5C732.234 263.545 727.978 255.866 720.714 252.479L440.161 121.655C432.897 118.268 424.279 119.943 418.813 125.804L207.696 352.199C202.23 358.061 201.16 366.775 205.046 373.785L355.121 644.529C359.007 651.538 366.964 655.249 374.832 653.72L678.7 594.654C686.568 593.124 692.555 586.703 693.532 578.748L731.258 271.5Z" stroke="url(#paint37_linear_32_81)" stroke-width="3"/>
<path opacity="0.393939" d="M731.925 268.589C732.763 260.618 728.373 253.014 721.051 249.754L438.863 124.116C431.542 120.856 422.953 122.682 417.59 128.638L210.901 358.19C205.538 364.146 204.62 372.878 208.627 379.819L363.074 647.328C367.081 654.269 375.102 657.84 382.942 656.174L685.085 591.951C692.924 590.285 698.799 583.76 699.637 575.789L731.925 268.589Z" stroke="url(#paint38_linear_32_81)" stroke-width="3"/>
<path opacity="0.40404" d="M732.527 265.732C733.226 257.748 728.704 250.222 721.326 247.091L437.599 126.655C430.221 123.524 421.666 125.499 416.408 131.548L214.191 364.172C208.933 370.221 208.167 378.967 212.295 385.837L371.046 650.042C375.173 656.912 383.255 660.343 391.065 658.54L691.395 589.203C699.204 587.4 704.965 580.774 705.663 572.79L732.527 265.732Z" stroke="url(#paint39_linear_32_81)" stroke-width="3"/>
<path opacity="0.414141" d="M733.066 262.935C733.625 254.94 728.972 247.494 721.541 244.492L436.369 129.275C428.938 126.273 420.419 128.397 415.267 134.536L217.567 370.147C212.415 376.286 211.802 385.045 216.05 391.842L379.036 652.674C383.283 659.471 391.423 662.76 399.2 660.821L697.632 586.414C705.408 584.475 711.052 577.749 711.611 569.754L733.066 262.935Z" stroke="url(#paint40_linear_32_81)" stroke-width="3"/>
<path opacity="0.424242" d="M733.542 260.196C733.961 252.193 729.179 244.829 721.697 241.957L435.176 131.972C427.694 129.1 419.213 131.372 414.169 137.601L221.028 376.111C215.984 382.339 215.524 391.107 219.889 397.829L387.042 655.221C391.407 661.943 399.604 665.089 407.345 663.015L703.793 583.582C711.535 581.508 717.06 574.685 717.479 566.681L733.542 260.196Z" stroke="url(#paint41_linear_32_81)" stroke-width="3"/>
<path opacity="0.434343" d="M733.956 257.517C734.235 249.507 729.326 242.228 721.794 239.487L434.02 134.746C426.489 132.004 418.049 134.424 413.115 140.74L224.573 382.062C219.639 388.378 219.332 397.153 223.814 403.797L395.063 657.684C399.545 664.328 407.795 667.331 415.499 665.122L709.878 580.71C717.583 578.501 722.988 571.582 723.268 563.572L733.956 257.517Z" stroke="url(#paint42_linear_32_81)" stroke-width="3"/>
<path opacity="0.444444" d="M734.309 254.898C734.449 246.884 729.413 239.692 721.835 237.083L432.904 137.596C425.326 134.986 416.929 137.553 412.106 143.954L228.203 388.001C223.38 394.402 223.227 403.18 227.824 409.746L403.097 660.062C407.694 666.627 415.996 669.486 423.66 667.142L715.888 577.8C723.552 575.456 728.836 568.444 728.976 560.431L734.309 254.898Z" stroke="url(#paint43_linear_32_81)" stroke-width="3"/>
<path opacity="0.454545" d="M734.603 252.341C734.603 244.326 729.443 237.223 721.82 234.746L431.827 140.522C424.204 138.045 415.854 140.758 411.143 147.242L231.917 393.925C227.207 400.409 227.207 409.189 231.917 415.673L411.143 662.356C415.854 668.84 424.204 671.554 431.827 669.077L721.82 574.852C729.443 572.376 734.603 565.273 734.603 557.258L734.603 252.341Z" stroke="url(#paint44_linear_32_81)" stroke-width="3"/>
<path opacity="0.464646" d="M734.84 249.845C734.7 241.832 729.416 234.82 721.751 232.477L430.791 143.521C423.127 141.178 414.825 144.037 410.228 150.602L235.715 399.832C231.118 406.398 231.271 415.176 236.095 421.577L419.2 664.566C424.023 670.966 432.419 673.533 439.997 670.924L727.676 571.868C735.254 569.259 740.29 562.067 740.15 554.054L734.84 249.845Z" stroke="url(#paint45_linear_32_81)" stroke-width="3"/>
<path opacity="0.474747" d="M735.019 247.413C734.74 239.403 729.334 232.484 721.63 230.275L429.799 146.594C422.095 144.385 413.844 147.388 409.362 154.032L239.596 405.721C235.114 412.366 235.421 421.14 240.355 427.456L427.265 666.69C432.199 673.005 440.639 675.425 448.17 672.684L733.453 568.85C740.985 566.108 745.894 558.83 745.615 550.82L735.019 247.413Z" stroke="url(#paint46_linear_32_81)" stroke-width="3"/>
<path opacity="0.484848" d="M735.144 245.045C734.724 237.041 729.199 230.218 721.457 228.143L428.85 149.74C421.108 147.665 412.912 150.812 408.547 157.533L243.56 411.591C239.194 418.313 239.654 427.081 244.698 433.309L435.337 668.73C440.381 674.958 448.862 677.231 456.344 674.358L739.153 565.798C746.635 562.926 751.417 555.563 750.998 547.559L735.144 245.045Z" stroke="url(#paint47_linear_32_81)" stroke-width="3"/>
<path opacity="0.494949" d="M735.214 242.741C734.655 234.746 729.011 228.02 721.234 226.081L427.946 152.956C420.17 151.017 412.029 154.306 407.782 161.103L247.605 417.44C243.358 424.237 243.971 432.995 249.122 439.135L443.415 670.684C448.567 676.824 457.086 678.948 464.517 675.946L744.774 562.715C752.205 559.712 756.858 552.266 756.299 544.271L735.214 242.741Z" stroke="url(#paint48_linear_32_81)" stroke-width="3"/>
<path opacity="0.50505" d="M735.23 240.505C734.532 232.521 728.772 225.894 720.962 224.091L427.089 156.245C419.28 154.442 411.197 157.873 407.07 164.743L251.732 423.268C247.604 430.138 248.369 438.884 253.628 444.933L451.497 672.556C456.756 678.605 465.311 680.58 472.688 677.449L750.316 559.603C757.693 556.471 762.215 548.945 761.517 540.961L735.23 240.505Z" stroke="url(#paint49_linear_32_81)" stroke-width="3"/>
<path opacity="0.515152" d="M735.196 238.335C734.358 230.364 728.483 223.839 720.643 222.173L426.279 159.604C418.439 157.937 410.418 161.508 406.411 168.449L255.94 429.072C251.933 436.013 252.851 444.745 258.213 450.701L459.582 674.344C464.945 680.3 473.533 682.125 480.855 678.865L755.779 556.462C763.1 553.202 767.49 545.598 766.653 537.627L735.196 238.335Z" stroke="url(#paint50_linear_32_81)" stroke-width="3"/>
<path opacity="0.525253" d="M735.111 236.231C734.134 228.276 728.146 221.855 720.279 220.326L425.517 163.03C417.65 161.501 409.692 165.211 405.807 172.221L260.229 434.85C256.343 441.86 257.413 450.575 262.879 456.436L467.669 676.046C473.135 681.908 481.753 683.583 489.017 680.196L761.162 553.293C768.425 549.906 772.682 542.226 771.705 534.271L735.111 236.231Z" stroke="url(#paint51_linear_32_81)" stroke-width="3"/>
<path opacity="0.535354" d="M734.976 234.197C733.861 226.26 727.762 219.944 719.869 218.552L424.805 166.525C416.912 165.133 409.02 168.982 405.258 176.058L264.597 440.603C260.834 447.68 262.056 456.374 267.623 462.14L475.754 677.665C481.321 683.431 489.968 684.955 497.172 681.442L766.465 550.099C773.668 546.585 777.79 538.833 776.675 530.897L734.976 234.197Z" stroke="url(#paint52_linear_32_81)" stroke-width="3"/>
<path opacity="0.545455" d="M734.795 232.23C733.541 224.314 727.332 218.106 719.416 216.852L424.144 170.086C416.228 168.832 408.405 172.818 404.766 179.959L269.044 446.328C265.406 453.469 266.779 462.141 272.446 467.808L483.838 679.2C489.505 684.868 498.177 686.241 505.318 682.602L771.688 546.881C778.829 543.242 782.815 535.419 781.561 527.503L734.795 232.23Z" stroke="url(#paint53_linear_32_81)" stroke-width="3"/>
<path opacity="0.555556" d="M734.566 230.333C733.174 222.44 726.858 216.341 718.922 215.226L423.534 173.712C415.598 172.597 407.845 176.718 404.332 183.922L273.57 452.024C270.056 459.227 271.581 467.874 277.346 473.441L491.919 680.651C497.684 686.219 506.378 687.441 513.455 683.678L776.83 543.639C783.906 539.877 787.755 531.985 786.364 524.092L734.566 230.333Z" stroke="url(#paint54_linear_32_81)" stroke-width="3"/>
<path opacity="0.565657" d="M734.292 228.508C732.763 220.64 726.342 214.652 718.387 213.676L422.977 177.404C415.022 176.427 407.343 180.684 403.956 187.947L278.173 457.69C274.786 464.954 276.461 473.572 282.323 479.038L499.994 682.02C505.856 687.486 514.57 688.556 521.58 684.671L781.891 540.378C788.901 536.492 792.612 528.535 791.082 520.667L734.292 228.508Z" stroke="url(#paint55_linear_32_81)" stroke-width="3"/>
<path opacity="0.575758" d="M733.975 226.752C732.309 218.912 725.784 213.037 717.813 212.199L422.475 181.158C414.504 180.32 406.9 184.71 403.641 192.032L282.854 463.323C279.594 470.645 281.42 479.233 287.376 484.596L508.064 683.305C514.02 688.667 522.752 689.585 529.693 685.578L786.872 537.095C793.813 533.088 797.384 525.067 795.718 517.227L733.975 226.752Z" stroke="url(#paint56_linear_32_81)" stroke-width="3"/>
<path opacity="0.585859" d="M733.616 225.068C731.813 217.259 725.186 211.499 717.202 210.8L422.027 184.976C414.043 184.277 406.517 188.799 403.385 196.177L287.611 468.925C284.479 476.302 286.454 484.857 292.503 490.115L516.125 684.507C522.174 689.766 530.921 690.531 537.791 686.403L791.772 533.796C798.641 529.668 802.072 521.586 800.269 513.777L733.616 225.068Z" stroke="url(#paint57_linear_32_81)" stroke-width="3"/>
<path opacity="0.59596" d="M733.215 223.456C731.276 215.68 724.55 210.036 716.555 209.477L421.635 188.854C413.64 188.295 406.194 192.948 403.192 200.379L292.443 474.491C289.441 481.922 291.565 490.442 297.705 495.593L524.178 685.627C530.317 690.779 539.076 691.391 545.873 687.144L796.59 530.479C803.387 526.232 806.676 518.091 804.737 510.314L733.215 223.456Z" stroke="url(#paint58_linear_32_81)" stroke-width="3"/>
<path opacity="0.606061" d="M732.775 221.917C730.7 214.176 723.877 208.65 715.873 208.231L421.3 192.793C413.297 192.374 405.933 197.155 403.061 204.638L297.35 480.023C294.478 487.505 296.751 495.986 302.979 501.03L532.22 686.665C538.448 691.709 547.216 692.168 553.938 687.803L801.327 527.147C808.048 522.782 811.195 514.585 809.12 506.844L732.775 221.917Z" stroke="url(#paint59_linear_32_81)" stroke-width="3"/>
<path opacity="0.616162" d="M732.296 220.451C730.087 212.747 723.168 207.342 715.158 207.062L421.023 196.79C413.013 196.511 405.734 201.42 402.993 208.952L302.332 485.517C299.59 493.048 302.011 501.488 308.326 506.423L540.249 687.621C546.565 692.555 555.34 692.861 561.984 688.38L805.982 523.801C812.626 519.319 815.629 511.069 813.42 503.365L732.296 220.451Z" stroke="url(#paint60_linear_32_81)" stroke-width="3"/>
<path opacity="0.626263" d="M731.781 219.06C729.437 211.395 722.425 206.111 714.412 205.971L420.805 200.847C412.791 200.707 405.599 205.743 402.99 213.321L307.386 490.974C304.777 498.552 307.344 506.948 313.744 511.772L548.265 688.496C554.666 693.319 563.445 693.473 570.01 688.875L810.556 520.444C817.121 515.847 819.979 507.545 817.636 499.881L731.781 219.06Z" stroke="url(#paint61_linear_32_81)" stroke-width="3"/>
<path opacity="0.636364" d="M731.23 217.743C728.753 210.12 721.65 204.959 713.635 204.959L420.646 204.959C412.631 204.959 405.528 210.12 403.052 217.743L312.513 496.392C310.036 504.014 312.749 512.365 319.233 517.076L556.267 689.29C562.751 694.001 571.531 694.001 578.015 689.29L815.048 517.076C821.532 512.365 824.245 504.014 821.769 496.392L731.23 217.743Z" stroke="url(#paint62_linear_32_81)" stroke-width="3"/>
<path opacity="0.646465" d="M730.645 216.499C728.036 208.921 720.843 203.885 712.83 204.025L420.548 209.127C412.534 209.267 405.522 214.551 403.179 222.215L317.711 501.769C315.368 509.433 318.226 517.735 324.792 522.332L564.252 690.003C570.817 694.6 579.595 694.447 585.996 689.624L819.459 513.697C825.86 508.874 828.427 500.478 825.817 492.9L730.645 216.499Z" stroke="url(#paint63_linear_32_81)" stroke-width="3"/>
<path opacity="0.656566" d="M730.027 215.332C727.286 207.8 720.007 202.891 711.997 203.17L420.511 213.349C412.501 213.629 405.583 219.035 403.373 226.739L322.98 507.104C320.771 514.808 323.774 523.059 330.418 527.541L572.219 690.637C578.863 695.119 587.638 694.812 593.953 689.878L823.788 510.312C830.103 505.378 832.523 496.938 829.782 489.406L730.027 215.332Z" stroke="url(#paint64_linear_32_81)" stroke-width="3"/>
<path opacity="0.666667" d="M729.378 214.239C726.506 206.756 719.143 201.974 711.139 202.394L420.537 217.624C412.533 218.043 405.709 223.568 403.635 231.31L328.318 512.396C326.244 520.137 329.391 528.334 336.112 532.699L580.166 691.19C586.888 695.555 595.656 695.096 601.885 690.052L828.035 506.919C834.264 501.875 836.536 493.394 833.664 485.912L729.378 214.239Z" stroke="url(#paint65_linear_32_81)" stroke-width="3"/>
<path opacity="0.676768" d="M728.7 213.223C725.698 205.792 718.252 201.139 710.257 201.698L420.625 221.951C412.63 222.51 405.904 228.154 403.965 235.93L333.726 517.645C331.787 525.421 335.076 533.562 341.873 537.809L588.094 691.665C594.891 695.912 603.65 695.3 609.789 690.148L832.201 503.522C838.341 498.37 840.465 489.851 837.463 482.42L728.7 213.223Z" stroke="url(#paint66_linear_32_81)" stroke-width="3"/>
<path opacity="0.686869" d="M727.993 212.282C724.861 204.905 717.335 200.383 709.351 201.081L420.777 226.328C412.793 227.027 406.167 232.787 404.364 240.596L339.201 522.848C337.398 530.657 340.829 538.739 347.699 542.867L595.999 692.061C602.869 696.189 611.616 695.424 617.665 690.166L836.286 500.121C842.335 494.863 844.31 486.308 841.178 478.93L727.993 212.282Z" stroke="url(#paint67_linear_32_81)" stroke-width="3"/>
<path opacity="0.69697" d="M727.259 211.419C723.999 204.097 716.395 199.707 708.424 200.545L420.994 230.755C413.024 231.592 406.499 237.467 404.832 245.307L344.743 528.005C343.077 535.844 346.648 543.865 353.589 547.872L603.882 692.379C610.823 696.386 619.555 695.469 625.511 690.106L840.289 496.718C846.245 491.355 848.071 482.767 844.811 475.445L727.259 211.419Z" stroke="url(#paint68_linear_32_81)" stroke-width="3"/>
<path opacity="0.707071" d="M726.499 210.633C723.112 203.369 715.433 199.113 707.478 200.089L421.277 235.231C413.322 236.207 406.9 242.195 405.371 250.063L350.351 533.115C348.822 540.983 352.533 548.94 359.542 552.826L611.74 692.621C618.749 696.507 627.464 695.437 633.326 689.971L844.212 493.316C850.073 487.85 851.749 479.231 848.362 471.968L726.499 210.633Z" stroke="url(#paint69_linear_32_81)" stroke-width="3"/>
<path opacity="0.717172" d="M725.715 209.923C722.202 202.72 714.45 198.598 706.513 199.713L421.625 239.752C413.688 240.867 407.372 246.966 405.981 254.859L356.024 538.176C354.632 546.069 358.481 553.961 365.558 557.723L619.571 692.785C626.648 696.548 635.342 695.326 641.108 689.758L848.053 489.913C853.818 484.346 855.343 475.699 851.83 468.496L725.715 209.923Z" stroke="url(#paint70_linear_32_81)" stroke-width="3"/>
<path opacity="0.727273" d="M724.909 209.292C721.271 202.151 713.448 198.165 705.532 199.419L422.04 244.319C414.124 245.573 407.916 251.782 406.662 259.698L361.761 543.189C360.507 551.105 364.493 558.928 371.635 562.567L627.376 692.874C634.517 696.512 643.189 695.139 648.856 689.471L851.814 486.514C857.481 480.847 858.855 472.175 855.216 465.034L724.909 209.292Z" stroke="url(#paint71_linear_32_81)" stroke-width="3"/>
<path opacity="0.737374" d="M724.081 208.738C720.319 201.662 712.427 197.813 704.534 199.204L422.522 248.931C414.629 250.322 408.53 256.638 407.415 264.575L367.561 548.151C366.445 556.087 370.567 563.84 377.771 567.353L635.152 692.886C642.355 696.4 651.002 694.875 656.57 689.11L855.494 483.118C861.061 477.352 862.283 468.658 858.521 461.581L724.081 208.738Z" stroke="url(#paint72_linear_32_81)" stroke-width="3"/>
<path opacity="0.747475" d="M723.234 208.263C719.348 201.253 711.391 197.543 703.524 199.072L423.073 253.586C415.205 255.115 409.217 261.537 408.241 269.492L373.422 553.062C372.446 561.017 376.702 568.696 383.966 572.083L642.898 692.825C650.162 696.213 658.781 694.537 664.247 688.676L859.094 479.728C864.56 473.866 865.63 465.152 861.744 458.142L723.234 208.263Z" stroke="url(#paint73_linear_32_81)" stroke-width="3"/>
<path opacity="0.757576" d="M722.368 207.864C718.361 200.924 710.34 197.352 702.5 199.019L423.692 258.281C415.852 259.948 409.977 266.472 409.139 274.443L379.345 557.919C378.507 565.89 382.897 573.494 390.219 576.754L650.614 692.689C657.935 695.949 666.523 694.123 671.886 688.167L862.614 476.343C867.976 470.387 868.894 461.655 864.887 454.714L722.368 207.864Z" stroke="url(#paint74_linear_32_81)" stroke-width="3"/>
<path opacity="0.767677" d="M721.485 207.545C717.358 200.675 709.275 197.245 701.466 199.047L424.38 263.018C416.571 264.821 410.81 271.447 410.112 279.431L385.327 562.724C384.629 570.708 389.151 578.234 396.528 581.366L658.296 692.48C665.674 695.611 674.229 693.636 679.487 687.587L866.054 472.967C871.312 466.918 872.077 458.172 867.949 451.302L721.485 207.545Z" stroke="url(#paint75_linear_32_81)" stroke-width="3"/>
<path opacity="0.777778" d="M720.587 207.305C716.34 200.508 708.199 197.219 700.423 199.158L425.138 267.794C417.361 269.733 411.718 276.459 411.159 284.454L391.368 567.475C390.809 575.47 395.462 582.916 402.893 585.918L665.946 692.199C673.377 695.201 681.896 693.077 687.048 686.937L869.415 469.601C874.566 463.462 875.179 454.703 870.932 447.906L720.587 207.305Z" stroke="url(#paint76_linear_32_81)" stroke-width="3"/>
<path opacity="0.787879" d="M719.675 207.143C715.309 200.421 707.113 197.275 699.371 199.349L425.966 272.608C418.225 274.682 412.699 281.505 412.28 289.509L397.466 572.171C397.047 580.174 401.829 587.538 409.311 590.41L673.56 691.846C681.043 694.718 689.524 692.446 694.567 686.217L872.696 466.246C877.74 460.018 878.199 451.25 873.834 444.528L719.675 207.143Z" stroke="url(#paint77_linear_32_81)" stroke-width="3"/>
<path opacity="0.79798" d="M718.75 207.058C714.268 200.414 706.017 197.411 698.313 199.62L426.865 277.456C419.161 279.666 413.756 286.584 413.476 294.594L403.621 576.809C403.341 584.819 408.251 592.098 415.782 594.839L681.139 691.421C688.67 694.162 697.11 691.742 702.045 685.426L875.899 462.902C880.834 456.587 881.14 447.812 876.658 441.168L718.75 207.058Z" stroke="url(#paint78_linear_32_81)" stroke-width="3"/>
<path opacity="0.808081" d="M717.813 207.054C713.216 200.488 704.915 197.63 697.25 199.973L427.836 282.341C420.172 284.685 414.888 291.697 414.748 299.71L409.831 581.391C409.691 589.405 414.727 596.597 422.305 599.206L688.681 690.927C696.259 693.536 704.655 690.969 709.478 684.568L879.024 459.573C883.848 453.173 884.001 444.394 879.404 437.829L717.813 207.054Z" stroke="url(#paint79_linear_32_81)" stroke-width="3"/>
<path opacity="0.818182" d="M716.867 207.127C712.156 200.643 703.806 197.929 696.184 200.406L428.878 287.259C421.256 289.736 416.095 296.839 416.095 304.853L416.095 585.915C416.095 593.93 421.256 601.033 428.878 603.509L696.184 690.362C703.806 692.839 712.156 690.126 716.867 683.642L882.071 456.258C886.782 449.774 886.782 440.994 882.071 434.51L716.867 207.127Z" stroke="url(#paint80_linear_32_81)" stroke-width="3"/>
<path opacity="0.828283" d="M715.913 207.279C711.09 200.878 702.693 198.311 695.115 200.92L429.993 292.209C422.415 294.819 417.379 302.011 417.519 310.024L422.412 590.38C422.552 598.394 427.836 605.406 435.501 607.749L703.647 689.73C711.312 692.073 719.614 689.215 724.211 682.649L885.041 452.96C889.638 446.395 889.485 437.616 884.661 431.215L715.913 207.279Z" stroke="url(#paint81_linear_32_81)" stroke-width="3"/>
<path opacity="0.838384" d="M714.952 207.509C710.017 201.193 701.577 198.773 694.046 201.514L431.18 297.19C423.649 299.931 418.739 307.21 419.019 315.22L428.781 594.785C429.061 602.795 434.467 609.714 442.171 611.923L711.07 689.029C718.775 691.238 727.025 688.235 731.507 681.591L887.933 449.679C892.415 443.034 892.109 434.26 887.174 427.944L714.952 207.509Z" stroke="url(#paint82_linear_32_81)" stroke-width="3"/>
<path opacity="0.848485" d="M713.985 207.819C708.941 201.59 700.46 199.318 692.978 202.19L432.44 302.201C424.958 305.073 420.176 312.437 420.596 320.44L435.201 599.131C435.621 607.135 441.146 613.959 448.888 616.033L718.452 688.262C726.193 690.337 734.39 687.19 738.755 680.469L890.75 446.418C895.115 439.696 894.655 430.928 889.612 424.7L713.985 207.819Z" stroke="url(#paint83_linear_32_81)" stroke-width="3"/>
<path opacity="0.858586" d="M713.014 208.206C707.862 202.066 699.343 199.942 691.912 202.945L433.774 307.239C426.343 310.241 421.69 317.687 422.249 325.682L441.67 603.415C442.229 611.41 447.873 618.136 455.649 620.075L725.79 687.429C733.567 689.368 741.708 686.079 745.955 679.282L893.49 443.176C897.737 436.379 897.125 427.621 891.973 421.481L713.014 208.206Z" stroke="url(#paint84_linear_32_81)" stroke-width="3"/>
<path opacity="0.868687" d="M712.04 208.672C706.782 202.623 698.227 200.648 690.85 203.78L435.181 312.305C427.804 315.436 423.282 322.962 423.98 330.946L448.187 607.637C448.886 615.622 454.646 622.248 462.455 624.051L733.085 686.531C740.894 688.334 748.976 684.903 753.104 678.033L896.155 439.956C900.283 433.087 899.518 424.34 894.26 418.291L712.04 208.672Z" stroke="url(#paint85_linear_32_81)" stroke-width="3"/>
<path opacity="0.878788" d="M711.066 209.217C705.703 203.261 697.115 201.435 689.793 204.695L436.663 317.396C429.341 320.656 424.951 328.26 425.788 336.23L454.752 611.798C455.59 619.769 461.465 626.294 469.304 627.96L740.335 685.569C748.174 687.236 756.195 683.664 760.202 676.724L898.745 436.76C902.753 429.82 901.835 421.088 896.472 415.132L711.066 209.217Z" stroke="url(#paint86_linear_32_81)" stroke-width="3"/>
<path opacity="0.888889" d="M710.091 209.839C704.625 203.978 696.006 202.302 688.742 205.689L438.218 322.511C430.954 325.898 426.698 333.577 427.675 341.532L461.362 615.894C462.339 623.849 468.327 630.271 476.194 631.8L747.538 684.544C755.406 686.073 763.363 682.363 767.249 675.353L901.261 433.588C905.147 426.578 904.077 417.864 898.611 412.002L710.091 209.839Z" stroke="url(#paint87_linear_32_81)" stroke-width="3"/>
<path opacity="0.89899" d="M709.118 210.539C703.55 204.774 694.904 203.249 687.7 206.763L439.848 327.648C432.645 331.162 428.523 338.914 429.638 346.851L468.017 619.927C469.132 627.864 475.231 634.18 483.124 635.571L754.695 683.457C762.588 684.848 770.479 680.999 774.242 673.923L903.704 430.441C907.466 423.365 906.244 414.67 900.677 408.905L709.118 210.539Z" stroke="url(#paint88_linear_32_81)" stroke-width="3"/>
<path opacity="0.909091" d="M708.147 211.319C702.48 205.651 693.808 204.278 686.667 207.916L441.553 332.808C434.412 336.447 430.426 344.27 431.68 352.186L474.715 623.896C475.968 631.812 482.177 638.021 490.093 639.275L761.803 682.309C769.719 683.563 777.543 679.577 781.181 672.436L906.073 427.322C909.711 420.181 908.338 411.509 902.671 405.842L708.147 211.319Z" stroke="url(#paint89_linear_32_81)" stroke-width="3"/>
<path opacity="0.919192" d="M707.181 212.173C701.416 206.606 692.721 205.384 685.645 209.146L443.333 337.986C436.257 341.748 432.408 349.64 433.799 357.533L481.455 627.798C482.846 635.691 489.162 641.79 497.099 642.906L768.863 681.1C776.8 682.215 784.552 678.093 788.065 670.89L908.37 424.229C911.883 417.026 910.358 408.379 904.593 402.812L707.181 212.173Z" stroke="url(#paint90_linear_32_81)" stroke-width="3"/>
<path opacity="0.929293" d="M706.221 213.106C700.36 207.64 691.645 206.57 684.635 210.456L445.189 343.183C438.179 347.069 434.468 355.026 435.998 362.893L488.236 631.636C489.765 639.503 496.186 645.491 504.141 646.468L775.873 679.832C783.828 680.809 791.507 676.552 794.894 669.289L910.595 421.167C913.982 413.903 912.307 405.284 906.445 399.818L706.221 213.106Z" stroke="url(#paint91_linear_32_81)" stroke-width="3"/>
<path opacity="0.939394" d="M705.268 214.116C699.312 208.753 690.58 207.835 683.639 211.843L447.119 348.397C440.178 352.405 436.607 360.426 438.273 368.265L495.056 635.407C496.722 643.246 503.247 649.121 511.218 649.959L782.831 678.507C790.802 679.344 798.406 674.954 801.666 667.633L912.75 418.135C916.009 410.813 914.184 402.225 908.228 396.862L705.268 214.116Z" stroke="url(#paint92_linear_32_81)" stroke-width="3"/>
<path opacity="0.949495" d="M704.323 215.204C698.274 209.945 689.528 209.18 682.658 213.308L449.125 353.629C442.255 357.756 438.824 365.838 440.627 373.648L501.915 639.112C503.718 646.921 510.344 652.681 518.328 653.38L789.738 677.125C797.722 677.824 805.248 673.302 808.38 665.924L914.833 415.135C917.965 407.758 915.99 399.203 909.941 393.945L704.323 215.204Z" stroke="url(#paint93_linear_32_81)" stroke-width="3"/>
<path opacity="0.959596" d="M703.388 216.365C697.248 211.214 688.49 210.601 681.693 214.848L451.207 358.872C444.41 363.119 441.121 371.26 443.06 379.036L508.81 642.748C510.749 650.524 517.475 656.168 525.47 656.727L796.592 675.686C804.588 676.245 812.033 671.592 815.036 664.161L916.848 412.167C919.85 404.736 917.726 396.217 911.587 391.065L703.388 216.365Z" stroke="url(#paint94_linear_32_81)" stroke-width="3"/>
<path opacity="0.969697" d="M702.464 217.605C696.235 212.561 687.467 212.101 680.746 216.466L453.364 364.13C446.642 368.495 443.496 376.692 445.57 384.433L515.742 646.317C517.816 654.058 524.639 659.584 532.643 660.003L803.393 674.193C811.397 674.612 818.76 669.83 821.632 662.348L918.794 409.234C921.666 401.752 919.393 393.271 913.165 388.227L702.464 217.605Z" stroke="url(#paint95_linear_32_81)" stroke-width="3"/>
<path opacity="0.979798" d="M701.552 218.917C695.237 213.983 686.462 213.677 679.817 218.158L455.597 369.397C448.952 373.879 445.949 382.129 448.158 389.834L522.707 649.815C524.916 657.52 531.835 662.925 539.845 663.205L810.139 672.644C818.149 672.924 825.428 668.014 828.169 660.482L920.671 406.334C923.412 398.803 920.992 390.363 914.677 385.429L701.552 218.917Z" stroke="url(#paint96_linear_32_81)" stroke-width="3"/>
<path opacity="0.989899" d="M700.654 220.307C694.254 215.484 685.475 215.331 678.91 219.928L457.906 374.676C451.34 379.274 448.482 387.575 450.825 395.24L529.706 653.247C532.049 660.912 539.061 666.196 547.075 666.335L816.83 671.044C824.843 671.184 832.036 666.148 834.645 658.57L922.482 403.472C925.091 395.894 922.524 387.498 916.123 382.675L700.654 220.307Z" stroke="url(#paint97_linear_32_81)" stroke-width="3"/>
<path d="M699.772 221.771C693.288 217.061 684.508 217.061 678.023 221.771L460.29 379.964C453.806 384.675 451.093 393.025 453.569 400.648L536.736 656.609C539.213 664.232 546.316 669.392 554.331 669.392H823.464C831.479 669.392 838.582 664.232 841.059 656.609L924.226 400.648C926.702 393.025 923.989 384.675 917.505 379.964L699.772 221.771Z" stroke="url(#paint98_linear_32_81)" stroke-width="3"/>
<defs>
<linearGradient id="paint0_linear_32_81" x1="331.73" y1="533.592" x2="382.868" y2="169.731" gradientUnits="userSpaceOnUse">
<stop stop-color="#FF1616"/>
<stop offset="1" stop-color="white"/>
</linearGradient>
<linearGradient id="paint1_linear_32_81" x1="338.271" y1="534.814" x2="382.969" y2="170.782" gradientUnits="userSpaceOnUse">
<stop stop-color="#FF1616"/>
<stop offset="1" stop-color="white"/>
</linearGradient>
<linearGradient id="paint2_linear_32_81" x1="344.807" y1="535.981" x2="383.075" y2="171.891" gradientUnits="userSpaceOnUse">
<stop stop-color="#FF1616"/>
<stop offset="1" stop-color="white"/>
</linearGradient>
<linearGradient id="paint3_linear_32_81" x1="351.338" y1="537.093" x2="383.187" y2="173.058" gradientUnits="userSpaceOnUse">
<stop stop-color="#FF1616"/>
<stop offset="1" stop-color="white"/>
</linearGradient>
<linearGradient id="paint4_linear_32_81" x1="357.862" y1="538.149" x2="383.306" y2="174.283" gradientUnits="userSpaceOnUse">
<stop stop-color="#FF1616"/>
<stop offset="1" stop-color="white"/>
</linearGradient>
<linearGradient id="paint5_linear_32_81" x1="364.379" y1="539.149" x2="383.434" y2="175.564" gradientUnits="userSpaceOnUse">
<stop stop-color="#FF1616"/>
<stop offset="1" stop-color="white"/>
</linearGradient>
<linearGradient id="paint6_linear_32_81" x1="370.887" y1="540.094" x2="383.57" y2="176.902" gradientUnits="userSpaceOnUse">
<stop stop-color="#FF1616"/>
<stop offset="1" stop-color="white"/>
</linearGradient>
<linearGradient id="paint7_linear_32_81" x1="377.387" y1="540.986" x2="383.717" y2="178.298" gradientUnits="userSpaceOnUse">
<stop stop-color="#FF1616"/>
<stop offset="1" stop-color="white"/>
</linearGradient>
<linearGradient id="paint8_linear_32_81" x1="383.875" y1="541.823" x2="383.875" y2="179.75" gradientUnits="userSpaceOnUse">
<stop stop-color="#FF1616"/>
<stop offset="1" stop-color="white"/>
</linearGradient>
<linearGradient id="paint9_linear_32_81" x1="390.353" y1="542.604" x2="384.045" y2="181.257" gradientUnits="userSpaceOnUse">
<stop stop-color="#FF1616"/>
<stop offset="1" stop-color="white"/>
</linearGradient>
<linearGradient id="paint10_linear_32_81" x1="396.818" y1="543.334" x2="384.228" y2="182.822" gradientUnits="userSpaceOnUse">
<stop stop-color="#FF1616"/>
<stop offset="1" stop-color="white"/>
</linearGradient>
<linearGradient id="paint11_linear_32_81" x1="403.27" y1="544.008" x2="384.426" y2="184.441" gradientUnits="userSpaceOnUse">
<stop stop-color="#FF1616"/>
<stop offset="1" stop-color="white"/>
</linearGradient>
<linearGradient id="paint12_linear_32_81" x1="409.708" y1="544.631" x2="384.638" y2="186.116" gradientUnits="userSpaceOnUse">
<stop stop-color="#FF1616"/>
<stop offset="1" stop-color="white"/>
</linearGradient>
<linearGradient id="paint13_linear_32_81" x1="416.131" y1="545.2" x2="384.866" y2="187.845" gradientUnits="userSpaceOnUse">
<stop stop-color="#FF1616"/>
<stop offset="1" stop-color="white"/>
</linearGradient>
<linearGradient id="paint14_linear_32_81" x1="422.537" y1="545.716" x2="385.111" y2="189.628" gradientUnits="userSpaceOnUse">
<stop stop-color="#FF1616"/>
<stop offset="1" stop-color="white"/>
</linearGradient>
<linearGradient id="paint15_linear_32_81" x1="428.928" y1="546.181" x2="385.374" y2="191.466" gradientUnits="userSpaceOnUse">
<stop stop-color="#FF1616"/>
<stop offset="1" stop-color="white"/>
</linearGradient>
<linearGradient id="paint16_linear_32_81" x1="435.3" y1="546.594" x2="385.656" y2="193.357" gradientUnits="userSpaceOnUse">
<stop stop-color="#FF1616"/>
<stop offset="1" stop-color="white"/>
</linearGradient>
<linearGradient id="paint17_linear_32_81" x1="441.654" y1="546.956" x2="385.957" y2="195.301" gradientUnits="userSpaceOnUse">
<stop stop-color="#FF1616"/>
<stop offset="1" stop-color="white"/>
</linearGradient>
<linearGradient id="paint18_linear_32_81" x1="447.988" y1="547.267" x2="386.279" y2="197.299" gradientUnits="userSpaceOnUse">
<stop stop-color="#FF1616"/>
<stop offset="1" stop-color="white"/>
</linearGradient>
<linearGradient id="paint19_linear_32_81" x1="454.302" y1="547.526" x2="386.623" y2="199.346" gradientUnits="userSpaceOnUse">
<stop stop-color="#FF1616"/>
<stop offset="1" stop-color="white"/>
</linearGradient>
<linearGradient id="paint20_linear_32_81" x1="460.595" y1="547.738" x2="386.989" y2="201.448" gradientUnits="userSpaceOnUse">
<stop stop-color="#FF1616"/>
<stop offset="1" stop-color="white"/>
</linearGradient>
<linearGradient id="paint21_linear_32_81" x1="466.866" y1="547.898" x2="387.378" y2="203.599" gradientUnits="userSpaceOnUse">
<stop stop-color="#FF1616"/>
<stop offset="1" stop-color="white"/>
</linearGradient>
<linearGradient id="paint22_linear_32_81" x1="473.113" y1="548.011" x2="387.791" y2="205.802" gradientUnits="userSpaceOnUse">
<stop stop-color="#FF1616"/>
<stop offset="1" stop-color="white"/>
</linearGradient>
<linearGradient id="paint23_linear_32_81" x1="479.337" y1="548.075" x2="388.229" y2="208.055" gradientUnits="userSpaceOnUse">
<stop stop-color="#FF1616"/>
<stop offset="1" stop-color="white"/>
</linearGradient>
<linearGradient id="paint24_linear_32_81" x1="485.537" y1="548.091" x2="388.693" y2="210.357" gradientUnits="userSpaceOnUse">
<stop stop-color="#FF1616"/>
<stop offset="1" stop-color="white"/>
</linearGradient>
<linearGradient id="paint25_linear_32_81" x1="491.711" y1="548.058" x2="389.184" y2="212.707" gradientUnits="userSpaceOnUse">
<stop stop-color="#FF1616"/>
<stop offset="1" stop-color="white"/>
</linearGradient>
<linearGradient id="paint26_linear_32_81" x1="497.86" y1="547.98" x2="389.703" y2="215.107" gradientUnits="userSpaceOnUse">
<stop stop-color="#FF1616"/>
<stop offset="1" stop-color="white"/>
</linearGradient>
<linearGradient id="paint27_linear_32_81" x1="503.981" y1="547.856" x2="390.249" y2="217.555" gradientUnits="userSpaceOnUse">
<stop stop-color="#FF1616"/>
<stop offset="1" stop-color="white"/>
</linearGradient>
<linearGradient id="paint28_linear_32_81" x1="510.074" y1="547.686" x2="390.824" y2="220.051" gradientUnits="userSpaceOnUse">
<stop stop-color="#FF1616"/>
<stop offset="1" stop-color="white"/>
</linearGradient>
<linearGradient id="paint29_linear_32_81" x1="516.139" y1="547.469" x2="391.43" y2="222.591" gradientUnits="userSpaceOnUse">
<stop stop-color="#FF1616"/>
<stop offset="1" stop-color="white"/>
</linearGradient>
<linearGradient id="paint30_linear_32_81" x1="522.175" y1="547.21" x2="392.066" y2="225.179" gradientUnits="userSpaceOnUse">
<stop stop-color="#FF1616"/>
<stop offset="1" stop-color="white"/>
</linearGradient>
<linearGradient id="paint31_linear_32_81" x1="528.181" y1="546.905" x2="392.734" y2="227.811" gradientUnits="userSpaceOnUse">
<stop stop-color="#FF1616"/>
<stop offset="1" stop-color="white"/>
</linearGradient>
<linearGradient id="paint32_linear_32_81" x1="534.156" y1="546.558" x2="393.433" y2="230.49" gradientUnits="userSpaceOnUse">
<stop stop-color="#FF1616"/>
<stop offset="1" stop-color="white"/>
</linearGradient>
<linearGradient id="paint33_linear_32_81" x1="540.1" y1="546.168" x2="394.166" y2="233.211" gradientUnits="userSpaceOnUse">
<stop stop-color="#FF1616"/>
<stop offset="1" stop-color="white"/>
</linearGradient>
<linearGradient id="paint34_linear_32_81" x1="546.012" y1="545.737" x2="394.932" y2="235.977" gradientUnits="userSpaceOnUse">
<stop stop-color="#FF1616"/>
<stop offset="1" stop-color="white"/>
</linearGradient>
<linearGradient id="paint35_linear_32_81" x1="551.891" y1="545.263" x2="395.733" y2="238.784" gradientUnits="userSpaceOnUse">
<stop stop-color="#FF1616"/>
<stop offset="1" stop-color="white"/>
</linearGradient>
<linearGradient id="paint36_linear_32_81" x1="557.737" y1="544.75" x2="396.568" y2="241.635" gradientUnits="userSpaceOnUse">
<stop stop-color="#FF1616"/>
<stop offset="1" stop-color="white"/>
</linearGradient>
<linearGradient id="paint37_linear_32_81" x1="563.548" y1="544.195" x2="397.439" y2="244.526" gradientUnits="userSpaceOnUse">
<stop stop-color="#FF1616"/>
<stop offset="1" stop-color="white"/>
</linearGradient>
<linearGradient id="paint38_linear_32_81" x1="569.325" y1="543.602" x2="398.347" y2="247.458" gradientUnits="userSpaceOnUse">
<stop stop-color="#FF1616"/>
<stop offset="1" stop-color="white"/>
</linearGradient>
<linearGradient id="paint39_linear_32_81" x1="575.067" y1="542.968" x2="399.291" y2="250.429" gradientUnits="userSpaceOnUse">
<stop stop-color="#FF1616"/>
<stop offset="1" stop-color="white"/>
</linearGradient>
<linearGradient id="paint40_linear_32_81" x1="580.772" y1="542.299" x2="400.273" y2="253.44" gradientUnits="userSpaceOnUse">
<stop stop-color="#FF1616"/>
<stop offset="1" stop-color="white"/>
</linearGradient>
<linearGradient id="paint41_linear_32_81" x1="586.442" y1="541.592" x2="401.294" y2="256.489" gradientUnits="userSpaceOnUse">
<stop stop-color="#FF1616"/>
<stop offset="1" stop-color="white"/>
</linearGradient>
<linearGradient id="paint42_linear_32_81" x1="592.073" y1="540.848" x2="402.353" y2="259.576" gradientUnits="userSpaceOnUse">
<stop stop-color="#FF1616"/>
<stop offset="1" stop-color="white"/>
</linearGradient>
<linearGradient id="paint43_linear_32_81" x1="597.667" y1="540.069" x2="403.451" y2="262.7" gradientUnits="userSpaceOnUse">
<stop stop-color="#FF1616"/>
<stop offset="1" stop-color="white"/>
</linearGradient>
<linearGradient id="paint44_linear_32_81" x1="603.223" y1="539.255" x2="404.59" y2="265.86" gradientUnits="userSpaceOnUse">
<stop stop-color="#FF1616"/>
<stop offset="1" stop-color="white"/>
</linearGradient>
<linearGradient id="paint45_linear_32_81" x1="608.74" y1="538.406" x2="405.769" y2="269.055" gradientUnits="userSpaceOnUse">
<stop stop-color="#FF1616"/>
<stop offset="1" stop-color="white"/>
</linearGradient>
<linearGradient id="paint46_linear_32_81" x1="614.217" y1="537.524" x2="406.99" y2="272.284" gradientUnits="userSpaceOnUse">
<stop stop-color="#FF1616"/>
<stop offset="1" stop-color="white"/>
</linearGradient>
<linearGradient id="paint47_linear_32_81" x1="619.655" y1="536.609" x2="408.252" y2="275.548" gradientUnits="userSpaceOnUse">
<stop stop-color="#FF1616"/>
<stop offset="1" stop-color="white"/>
</linearGradient>
<linearGradient id="paint48_linear_32_81" x1="625.053" y1="535.661" x2="409.557" y2="278.843" gradientUnits="userSpaceOnUse">
<stop stop-color="#FF1616"/>
<stop offset="1" stop-color="white"/>
</linearGradient>
<linearGradient id="paint49_linear_32_81" x1="630.409" y1="534.684" x2="410.903" y2="282.172" gradientUnits="userSpaceOnUse">
<stop stop-color="#FF1616"/>
<stop offset="1" stop-color="white"/>
</linearGradient>
<linearGradient id="paint50_linear_32_81" x1="635.724" y1="533.676" x2="412.294" y2="285.531" gradientUnits="userSpaceOnUse">
<stop stop-color="#FF1616"/>
<stop offset="1" stop-color="white"/>
</linearGradient>
<linearGradient id="paint51_linear_32_81" x1="640.997" y1="532.638" x2="413.727" y2="288.921" gradientUnits="userSpaceOnUse">
<stop stop-color="#FF1616"/>
<stop offset="1" stop-color="white"/>
</linearGradient>
<linearGradient id="paint52_linear_32_81" x1="646.228" y1="531.571" x2="415.205" y2="292.34" gradientUnits="userSpaceOnUse">
<stop stop-color="#FF1616"/>
<stop offset="1" stop-color="white"/>
</linearGradient>
<linearGradient id="paint53_linear_32_81" x1="651.416" y1="530.477" x2="416.728" y2="295.788" gradientUnits="userSpaceOnUse">
<stop stop-color="#FF1616"/>
<stop offset="1" stop-color="white"/>
</linearGradient>
<linearGradient id="paint54_linear_32_81" x1="656.562" y1="529.355" x2="418.295" y2="299.264" gradientUnits="userSpaceOnUse">
<stop stop-color="#FF1616"/>
<stop offset="1" stop-color="white"/>
</linearGradient>
<linearGradient id="paint55_linear_32_81" x1="661.663" y1="528.207" x2="419.908" y2="302.767" gradientUnits="userSpaceOnUse">
<stop stop-color="#FF1616"/>
<stop offset="1" stop-color="white"/>
</linearGradient>
<linearGradient id="paint56_linear_32_81" x1="666.721" y1="527.033" x2="421.566" y2="306.295" gradientUnits="userSpaceOnUse">
<stop stop-color="#FF1616"/>
<stop offset="1" stop-color="white"/>
</linearGradient>
<linearGradient id="paint57_linear_32_81" x1="671.735" y1="525.836" x2="423.271" y2="309.85" gradientUnits="userSpaceOnUse">
<stop stop-color="#FF1616"/>
<stop offset="1" stop-color="white"/>
</linearGradient>
<linearGradient id="paint58_linear_32_81" x1="676.704" y1="524.614" x2="425.022" y2="313.428" gradientUnits="userSpaceOnUse">
<stop stop-color="#FF1616"/>
<stop offset="1" stop-color="white"/>
</linearGradient>
<linearGradient id="paint59_linear_32_81" x1="681.628" y1="523.37" x2="426.82" y2="317.03" gradientUnits="userSpaceOnUse">
<stop stop-color="#FF1616"/>
<stop offset="1" stop-color="white"/>
</linearGradient>
<linearGradient id="paint60_linear_32_81" x1="686.507" y1="522.103" x2="428.665" y2="320.654" gradientUnits="userSpaceOnUse">
<stop stop-color="#FF1616"/>
<stop offset="1" stop-color="white"/>
</linearGradient>
<linearGradient id="paint61_linear_32_81" x1="691.34" y1="520.815" x2="430.557" y2="324.301" gradientUnits="userSpaceOnUse">
<stop stop-color="#FF1616"/>
<stop offset="1" stop-color="white"/>
</linearGradient>
<linearGradient id="paint62_linear_32_81" x1="696.128" y1="519.508" x2="432.497" y2="327.969" gradientUnits="userSpaceOnUse">
<stop stop-color="#FF1616"/>
<stop offset="1" stop-color="white"/>
</linearGradient>
<linearGradient id="paint63_linear_32_81" x1="700.869" y1="518.18" x2="434.485" y2="331.656" gradientUnits="userSpaceOnUse">
<stop stop-color="#FF1616"/>
<stop offset="1" stop-color="white"/>
</linearGradient>
<linearGradient id="paint64_linear_32_81" x1="705.564" y1="516.834" x2="436.522" y2="335.362" gradientUnits="userSpaceOnUse">
<stop stop-color="#FF1616"/>
<stop offset="1" stop-color="white"/>
</linearGradient>
<linearGradient id="paint65_linear_32_81" x1="710.213" y1="515.468" x2="438.606" y2="339.085" gradientUnits="userSpaceOnUse">
<stop stop-color="#FF1616"/>
<stop offset="1" stop-color="white"/>
</linearGradient>
<linearGradient id="paint66_linear_32_81" x1="714.815" y1="514.088" x2="440.74" y2="342.827" gradientUnits="userSpaceOnUse">
<stop stop-color="#FF1616"/>
<stop offset="1" stop-color="white"/>
</linearGradient>
<linearGradient id="paint67_linear_32_81" x1="719.37" y1="512.69" x2="442.922" y2="346.584" gradientUnits="userSpaceOnUse">
<stop stop-color="#FF1616"/>
<stop offset="1" stop-color="white"/>
</linearGradient>
<linearGradient id="paint68_linear_32_81" x1="723.877" y1="511.278" x2="445.154" y2="350.357" gradientUnits="userSpaceOnUse">
<stop stop-color="#FF1616"/>
<stop offset="1" stop-color="white"/>
</linearGradient>
<linearGradient id="paint69_linear_32_81" x1="728.338" y1="509.852" x2="447.435" y2="354.145" gradientUnits="userSpaceOnUse">
<stop stop-color="#FF1616"/>
<stop offset="1" stop-color="white"/>
</linearGradient>
<linearGradient id="paint70_linear_32_81" x1="732.751" y1="508.412" x2="449.765" y2="357.945" gradientUnits="userSpaceOnUse">
<stop stop-color="#FF1616"/>
<stop offset="1" stop-color="white"/>
</linearGradient>
<linearGradient id="paint71_linear_32_81" x1="737.116" y1="506.959" x2="452.145" y2="361.759" gradientUnits="userSpaceOnUse">
<stop stop-color="#FF1616"/>
<stop offset="1" stop-color="white"/>
</linearGradient>
<linearGradient id="paint72_linear_32_81" x1="741.433" y1="505.495" x2="454.574" y2="365.585" gradientUnits="userSpaceOnUse">
<stop stop-color="#FF1616"/>
<stop offset="1" stop-color="white"/>
</linearGradient>
<linearGradient id="paint73_linear_32_81" x1="745.703" y1="504.021" x2="457.053" y2="369.422" gradientUnits="userSpaceOnUse">
<stop stop-color="#FF1616"/>
<stop offset="1" stop-color="white"/>
</linearGradient>
<linearGradient id="paint74_linear_32_81" x1="749.925" y1="502.536" x2="459.582" y2="373.267" gradientUnits="userSpaceOnUse">
<stop stop-color="#FF1616"/>
<stop offset="1" stop-color="white"/>
</linearGradient>
<linearGradient id="paint75_linear_32_81" x1="754.098" y1="501.042" x2="462.162" y2="377.122" gradientUnits="userSpaceOnUse">
<stop stop-color="#FF1616"/>
<stop offset="1" stop-color="white"/>
</linearGradient>
<linearGradient id="paint76_linear_32_81" x1="758.224" y1="499.541" x2="464.791" y2="380.986" gradientUnits="userSpaceOnUse">
<stop stop-color="#FF1616"/>
<stop offset="1" stop-color="white"/>
</linearGradient>
<linearGradient id="paint77_linear_32_81" x1="762.301" y1="498.033" x2="467.47" y2="384.857" gradientUnits="userSpaceOnUse">
<stop stop-color="#FF1616"/>
<stop offset="1" stop-color="white"/>
</linearGradient>
<linearGradient id="paint78_linear_32_81" x1="766.331" y1="496.516" x2="470.199" y2="388.733" gradientUnits="userSpaceOnUse">
<stop stop-color="#FF1616"/>
<stop offset="1" stop-color="white"/>
</linearGradient>
<linearGradient id="paint79_linear_32_81" x1="770.312" y1="494.996" x2="472.978" y2="392.616" gradientUnits="userSpaceOnUse">
<stop stop-color="#FF1616"/>
<stop offset="1" stop-color="white"/>
</linearGradient>
<linearGradient id="paint80_linear_32_81" x1="774.245" y1="493.47" x2="475.807" y2="396.502" gradientUnits="userSpaceOnUse">
<stop stop-color="#FF1616"/>
<stop offset="1" stop-color="white"/>
</linearGradient>
<linearGradient id="paint81_linear_32_81" x1="778.13" y1="491.941" x2="478.686" y2="400.392" gradientUnits="userSpaceOnUse">
<stop stop-color="#FF1616"/>
<stop offset="1" stop-color="white"/>
</linearGradient>
<linearGradient id="paint82_linear_32_81" x1="781.967" y1="490.408" x2="481.615" y2="404.284" gradientUnits="userSpaceOnUse">
<stop stop-color="#FF1616"/>
<stop offset="1" stop-color="white"/>
</linearGradient>
<linearGradient id="paint83_linear_32_81" x1="785.755" y1="488.875" x2="484.595" y2="408.179" gradientUnits="userSpaceOnUse">
<stop stop-color="#FF1616"/>
<stop offset="1" stop-color="white"/>
</linearGradient>
<linearGradient id="paint84_linear_32_81" x1="789.496" y1="487.339" x2="487.623" y2="412.073" gradientUnits="userSpaceOnUse">
<stop stop-color="#FF1616"/>
<stop offset="1" stop-color="white"/>
</linearGradient>
<linearGradient id="paint85_linear_32_81" x1="793.189" y1="485.803" x2="490.702" y2="415.969" gradientUnits="userSpaceOnUse">
<stop stop-color="#FF1616"/>
<stop offset="1" stop-color="white"/>
</linearGradient>
<linearGradient id="paint86_linear_32_81" x1="796.834" y1="484.269" x2="493.83" y2="419.863" gradientUnits="userSpaceOnUse">
<stop stop-color="#FF1616"/>
<stop offset="1" stop-color="white"/>
</linearGradient>
<linearGradient id="paint87_linear_32_81" x1="800.432" y1="482.735" x2="497.008" y2="423.755" gradientUnits="userSpaceOnUse">
<stop stop-color="#FF1616"/>
<stop offset="1" stop-color="white"/>
</linearGradient>
<linearGradient id="paint88_linear_32_81" x1="803.982" y1="481.204" x2="500.235" y2="427.645" gradientUnits="userSpaceOnUse">
<stop stop-color="#FF1616"/>
<stop offset="1" stop-color="white"/>
</linearGradient>
<linearGradient id="paint89_linear_32_81" x1="807.484" y1="479.677" x2="503.512" y2="431.532" gradientUnits="userSpaceOnUse">
<stop stop-color="#FF1616"/>
<stop offset="1" stop-color="white"/>
</linearGradient>
<linearGradient id="paint90_linear_32_81" x1="810.939" y1="478.152" x2="506.837" y2="435.413" gradientUnits="userSpaceOnUse">
<stop stop-color="#FF1616"/>
<stop offset="1" stop-color="white"/>
</linearGradient>
<linearGradient id="paint91_linear_32_81" x1="814.348" y1="476.632" x2="510.211" y2="439.289" gradientUnits="userSpaceOnUse">
<stop stop-color="#FF1616"/>
<stop offset="1" stop-color="white"/>
</linearGradient>
<linearGradient id="paint92_linear_32_81" x1="817.709" y1="475.119" x2="513.634" y2="443.159" gradientUnits="userSpaceOnUse">
<stop stop-color="#FF1616"/>
<stop offset="1" stop-color="white"/>
</linearGradient>
<linearGradient id="paint93_linear_32_81" x1="821.024" y1="473.613" x2="517.105" y2="447.024" gradientUnits="userSpaceOnUse">
<stop stop-color="#FF1616"/>
<stop offset="1" stop-color="white"/>
</linearGradient>
<linearGradient id="paint94_linear_32_81" x1="824.292" y1="472.112" x2="520.624" y2="450.878" gradientUnits="userSpaceOnUse">
<stop stop-color="#FF1616"/>
<stop offset="1" stop-color="white"/>
</linearGradient>
<linearGradient id="paint95_linear_32_81" x1="827.514" y1="470.621" x2="524.192" y2="454.725" gradientUnits="userSpaceOnUse">
<stop stop-color="#FF1616"/>
<stop offset="1" stop-color="white"/>
</linearGradient>
<linearGradient id="paint96_linear_32_81" x1="830.69" y1="469.137" x2="527.807" y2="458.56" gradientUnits="userSpaceOnUse">
<stop stop-color="#FF1616"/>
<stop offset="1" stop-color="white"/>
</linearGradient>
<linearGradient id="paint97_linear_32_81" x1="833.821" y1="467.665" x2="531.469" y2="462.387" gradientUnits="userSpaceOnUse">
<stop stop-color="#FF1616"/>
<stop offset="1" stop-color="white"/>
</linearGradient>
<linearGradient id="paint98_linear_32_81" x1="836.906" y1="466.202" x2="535.179" y2="466.202" gradientUnits="userSpaceOnUse">
<stop stop-color="#FF1616"/>
<stop offset="1" stop-color="white"/>
</linearGradient>
</defs>
</svg>
